<?xml version="1.0" encoding="iso-8859-1"?>
<!-- Generator: Adobe Illustrator 19.0.0, SVG Export Plug-In . SVG Version: 6.00 Build 0)  -->
<svg version="1.1" id="Layer_1" xmlns="http://www.w3.org/2000/svg" xmlns:xlink="http://www.w3.org/1999/xlink" x="0px" y="0px"
	 viewBox="0 0 496 496" style="enable-background:new 0 0 496 496;" xml:space="preserve">
<g>
	<g>
		<g>
			<rect x="232" y="448" width="56" height="16"/>
			<path d="M448,318.36V208h16v-16h-96v16h16v110.36l-13.152,30.696c-14.136-14.728-32.248-25.12-52.28-29.568L256,305.584v-19.768
				c24.176-17.448,40-45.784,40-77.816v-21.576l12.904-19.36C321.4,148.32,328,126.512,328,104c0-28.336-21.16-51.824-48.504-55.504
				C275.824,21.16,252.336,0,224,0h-48C118.656,0,72,46.656,72,104c0,22.512,6.6,44.32,19.096,63.064L104,186.424V208
				c0,32.032,15.824,60.368,40,77.816v19.768L81.44,319.48C33.488,330.144,0,371.88,0,421.008V496h400v-32h68.088
				C483.48,464,496,451.48,496,436.088c0-3.808-0.76-7.504-2.256-10.992L448,318.36z M400,321.64V208h32v113.64l6.152,14.36H393.84
				L400,321.64z M104,157.528c-10.456-15.96-16-34.44-16-53.528c0-48.52,39.48-88,88-88h48c22.056,0,40,17.944,40,40v8h8
				c22.056,0,40,17.944,40,40c0,19.088-5.544,37.568-16,53.528V136h-16v4.448c-4.728-2.752-10.144-4.448-16-4.448H136
				c-5.856,0-11.272,1.696-16,4.448V136h-16V157.528z M120,168c0-8.824,7.176-16,16-16h128c8.824,0,16,7.176,16,16v21.512
				C272.056,201.088,259.016,208,244.944,208c-11.368,0-22.056-4.424-30.096-12.464L211.312,192h-22.624l-3.536,3.536
				c-8.04,8.04-18.728,12.464-30.096,12.464c-14.064,0-27.104-6.912-35.056-18.488V168z M120.224,212.44
				c9.944,7.376,22.064,11.56,34.832,11.56c15.096,0,29.312-5.672,40.224-16h9.44c10.912,10.328,25.136,16,40.224,16
				c12.768,0,24.888-4.184,34.832-11.56C277.448,254.48,242.608,288,200,288C157.392,288,122.552,254.48,120.224,212.44z M200,336
				c-18.976,0-30.592-9.976-33.4-12.696l-6.6-13.192V295.16c12.192,5.616,25.712,8.84,40,8.84c14.288,0,27.808-3.224,40-8.84v14.952
				l-6.6,13.2C230.648,325.968,219.008,336,200,336z M220.736,348.648L200,390.112l-20.736-41.464
				c5.968,1.96,12.84,3.352,20.736,3.352S214.768,350.608,220.736,348.648z M192,480H96v-32H80v32H16v-58.992
				c0-41.56,28.336-76.888,68.904-85.896l25.024-5.56l-7.28,36.368l28.392,7.096l-13.56,20.344L192,459.584V480z M138.512,390.648
				l18.44-27.656l-35.608-8.904l5.664-28.336l20.632-4.592L200,425.888l52.36-104.728l20.624,4.584l5.664,28.336l-35.608,8.904
				l18.44,27.656L200,445.304L138.512,390.648z M384,480h-64v-32h-16v32h-96v-20.416l74.512-66.24L268.952,373l28.392-7.096
				l-7.28-36.368l25.024,5.56c19.176,4.264,36.312,14.944,48.8,30.168l-25.632,59.808c-1.496,3.504-2.256,7.208-2.256,11.016
				C336,451.48,348.52,464,363.912,464H384V480z M468.088,448H363.912c-6.568,0-11.912-5.344-11.912-11.912
				c0-1.624,0.32-3.2,0.96-4.696L386.984,352h58.024l34.024,79.4c0.648,1.48,0.968,3.064,0.968,4.688
				C480,442.656,474.656,448,468.088,448z"/>
			<path d="M472,184c13.232,0,24-10.768,24-24s-10.768-24-24-24s-24,10.768-24,24S458.768,184,472,184z M472,152
				c4.416,0,8,3.584,8,8s-3.584,8-8,8c-4.416,0-8-3.584-8-8S467.584,152,472,152z"/>
			<path d="M392,152c17.648,0,32-14.352,32-32s-14.352-32-32-32s-32,14.352-32,32S374.352,152,392,152z M392,104
				c8.824,0,16,7.176,16,16s-7.176,16-16,16c-8.824,0-16-7.176-16-16C376,111.176,383.176,104,392,104z"/>
		</g>
	</g>
</g>
<g>
</g>
<g>
</g>
<g>
</g>
<g>
</g>
<g>
</g>
<g>
</g>
<g>
</g>
<g>
</g>
<g>
</g>
<g>
</g>
<g>
</g>
<g>
</g>
<g>
</g>
<g>
</g>
<g>
</g>
</svg>
