<?xml version="1.0" encoding="iso-8859-1"?>
<!-- Generator: Adobe Illustrator 19.0.0, SVG Export Plug-In . SVG Version: 6.00 Build 0)  -->
<svg version="1.1" id="Layer_1" xmlns="http://www.w3.org/2000/svg" xmlns:xlink="http://www.w3.org/1999/xlink" x="0px" y="0px"
	 viewBox="0 0 352.457 352.457" style="enable-background:new 0 0 352.457 352.457;" xml:space="preserve">
<g>
	<g>
		<path d="M313.023,72.418L241.895,1.29c-0.43-0.774-1.29-1.29-2.409-1.29H52.336c-7.569,0-13.847,6.193-13.847,13.847V338.61
			c0,7.569,6.193,13.847,13.847,13.847h247.786c7.311,0,13.503-6.192,13.847-13.847V74.482
			C313.797,73.536,313.539,72.934,313.023,72.418z M308.292,338.523h-0.085v0.001c0,4.472-3.698,8.171-8.171,8.171H52.25
			c-4.472,0-8.171-3.698-8.171-8.171V13.761c0-4.472,3.698-8.171,8.171-8.171h184.399v50.486c0,11.525,9.547,21.158,21.157,21.158
			h25.63c1.376,0,2.838-1.118,2.838-2.838s-1.118-2.838-2.838-2.838h-25.63c-8.429,0-15.482-7.052-15.482-15.482V9.546
			l65.967,65.967V338.523z"/>
	</g>
</g>
<g>
	<g>
		<path d="M283.35,134.687H137.569c-1.72,0-2.838,1.118-2.838,2.838s1.118,2.838,2.838,2.838H283.35
			c1.376,0,2.838-1.118,2.838-2.838S285.071,134.687,283.35,134.687z"/>
	</g>
</g>
<g>
	<g>
		<path d="M170.337,178.896h-32.941c-1.72,0-2.838,1.118-2.838,2.838c0,1.72,1.118,2.838,2.838,2.838h32.941
			c1.72,0,2.838-1.118,2.838-2.838C173.175,180.013,172.056,178.896,170.337,178.896z"/>
	</g>
</g>
<g>
	<g>
		<path d="M283.35,178.981h-87.985c-1.72,0-2.838,1.118-2.838,2.838c0,1.72,1.118,2.838,2.838,2.838h87.985
			c1.376,0,2.838-1.118,2.838-2.838C286.188,180.099,285.071,178.981,283.35,178.981z"/>
	</g>
</g>
<g>
	<g>
		<path d="M283.35,266.88H250.41c-1.72,0-2.838,1.118-2.838,2.838c0,1.72,1.118,2.838,2.838,2.838h32.941
			c1.376,0,2.838-1.118,2.838-2.838C286.188,268.084,285.071,266.88,283.35,266.88z"/>
	</g>
</g>
<g>
	<g>
		<path d="M225.64,266.88h-87.986c-1.72,0-2.838,1.118-2.838,2.838c0,1.72,1.118,2.838,2.838,2.838h87.986
			c1.376,0,2.838-1.118,2.838-2.838C228.392,268.084,227.273,266.88,225.64,266.88z"/>
	</g>
</g>
<g>
	<g>
		<path d="M283.35,222.93H137.569c-1.72,0-2.838,1.118-2.838,2.838c0,1.72,1.118,2.838,2.838,2.838H283.35
			c1.376,0,2.838-1.118,2.838-2.838C286.188,224.049,285.071,222.93,283.35,222.93z"/>
	</g>
</g>
<g>
	<g>
		<path d="M114.862,119.206c-1.204-1.118-2.838-1.118-3.956,0l-22.792,22.792l-11.525-11.525c-1.118-1.118-2.838-1.118-3.956,0
			c-1.118,1.118-1.118,2.838,0,3.956l13.503,13.503c0.602,0.602,1.118,0.86,1.978,0.86c0.602,0,1.376-0.258,1.978-0.86l24.77-24.77
			C115.981,122.044,115.981,120.325,114.862,119.206z"/>
	</g>
</g>
<g>
	<g>
		<path d="M114.863,163.156c-1.204-1.118-2.839-1.118-3.957-0.001l-22.792,22.792L76.59,174.423c-1.118-1.118-2.838-1.118-3.956,0
			c-1.118,1.118-1.118,2.838,0,3.956l13.503,13.503c0.602,0.602,1.118,0.86,1.978,0.86c0.602,0,1.376-0.258,1.978-0.86l24.77-24.77
			C115.981,165.994,115.981,164.274,114.863,163.156z"/>
	</g>
</g>
<g>
	<g>
		<path d="M114.862,207.191c-1.204-1.204-2.838-1.204-3.956,0l-22.792,22.792l-11.525-11.525c-1.118-1.118-2.838-1.118-3.956,0
			c-1.118,1.118-1.118,2.838,0,3.956l13.503,13.503c0.602,0.602,1.118,0.86,1.978,0.86c0.602,0,1.376-0.258,1.978-0.86l24.77-24.77
			C115.981,210.029,115.981,208.31,114.862,207.191z"/>
	</g>
</g>
<g>
	<g>
		<path d="M114.862,251.141c-1.204-1.118-2.838-1.118-3.956,0l-22.792,22.792l-11.525-11.525c-1.118-1.118-2.838-1.118-3.956,0
			c-1.118,1.118-1.118,2.838,0,3.956l13.503,13.503c0.602,0.602,1.118,0.86,1.978,0.86c0.602,0,1.376-0.258,1.978-0.86l24.77-24.77
			C115.981,253.979,115.981,252.259,114.862,251.141z"/>
	</g>
</g>
<g>
</g>
<g>
</g>
<g>
</g>
<g>
</g>
<g>
</g>
<g>
</g>
<g>
</g>
<g>
</g>
<g>
</g>
<g>
</g>
<g>
</g>
<g>
</g>
<g>
</g>
<g>
</g>
<g>
</g>
</svg>
