<?xml version="1.0" encoding="iso-8859-1"?>
<!-- Generator: Adobe Illustrator 19.0.0, SVG Export Plug-In . SVG Version: 6.00 Build 0)  -->
<svg version="1.1" id="Layer_1" xmlns="http://www.w3.org/2000/svg" xmlns:xlink="http://www.w3.org/1999/xlink" x="0px" y="0px"
	 viewBox="0 0 512 512" style="enable-background:new 0 0 512 512;" xml:space="preserve">
<g>
	<g>
		<polygon points="263.297,496.364 263.297,472.389 247.661,472.389 247.661,496.364 178.863,496.364 178.863,512 335.221,512 
			335.221,496.364 		"/>
	</g>
</g>
<g>
	<g>
		<rect x="32.929" y="402.549" width="447.184" height="15.636"/>
	</g>
</g>
<g>
	<g>
		<rect x="217.432" y="425.482" width="15.636" height="15.636"/>
	</g>
</g>
<g>
	<g>
		<rect x="249.746" y="425.482" width="14.593" height="15.636"/>
	</g>
</g>
<g>
	<g>
		<rect x="279.975" y="425.482" width="15.636" height="15.636"/>
	</g>
</g>
<g>
	<g>
		<path d="M81.421,151.334c0,9.381-7.248,16.157-16.156,16.157c-8.909,0-16.157-6.776-16.157-16.157H33.472
			c0,17.721,14.263,31.793,31.793,31.793s31.792-14.072,31.792-31.793H81.421z"/>
	</g>
</g>
<g>
	<g>
		<path d="M113.214,112.244c-17.53,0-31.793,14.072-31.793,31.793h15.636c0-9.381,7.248-16.157,16.157-16.157
			c8.908,0,16.156,6.776,16.156,16.157h15.636C145.005,126.317,130.744,112.244,113.214,112.244z"/>
	</g>
</g>
<g>
	<g>
		<path d="M169.328,103.542h279.355V0H169.328V103.542z M184.963,15.636h248.083v72.271H184.963V15.636z"/>
	</g>
</g>
<g>
	<g>
		<path d="M209.093,311.321v-15.636c-13.551,0-23.801,10.677-23.801,23.801s10.25,23.801,23.801,23.801v-15.636
			c-4.17,0-8.165-3.663-8.165-8.165C200.928,314.984,204.923,311.321,209.093,311.321z"/>
	</g>
</g>
<g>
	<g>
		<path d="M313.174,327.497h-95.743v15.636h95.743v32.12h167.474v-247.39H313.174V327.497z M328.81,143.499h136.203v216.117H328.81
			V143.499z"/>
	</g>
</g>
<g>
	<g>
		<polygon points="488.452,201.368 488.452,217.004 495.749,217.004 495.749,449.457 16.251,449.457 16.251,217.004 
			129.871,217.004 129.871,271.208 145.507,271.208 145.507,217.004 256,217.004 256,271.208 271.636,271.208 271.636,217.004 
			304.992,217.004 304.992,201.368 271.636,201.368 271.636,110.681 256,110.681 256,201.368 145.507,201.368 145.507,150.291 
			129.871,150.291 129.871,201.368 0.615,201.368 0.615,465.093 511.385,465.093 511.385,201.368 		"/>
	</g>
</g>
<g>
	<g>
		<polygon points="255.528,22.269 229.09,48.708 214.64,34.256 203.584,45.312 229.09,70.819 266.584,33.326 		"/>
	</g>
</g>
<g>
	<g>
		<rect x="288.314" y="33.544" width="120.917" height="15.636"/>
	</g>
</g>
<g>
	<g>
		<rect x="288.314" y="56.477" width="74.01" height="15.636"/>
	</g>
</g>
<g>
	<g>
		<path d="M337.149,207.778v143.5h55.593v-143.5H337.149z M377.106,335.643h-24.321V223.414h24.321V335.643z"/>
	</g>
</g>
<g>
	<g>
		<path d="M401.082,151.838v199.44h55.593v-199.44H401.082z M441.038,335.643h-24.321V167.474h24.321V335.643z"/>
	</g>
</g>
<g>
	<g>
		<rect x="335.221" y="154.461" width="58.374" height="15.636"/>
	</g>
</g>
<g>
	<g>
		<rect x="335.221" y="178.436" width="27.102" height="15.636"/>
	</g>
</g>
<g>
	<g>
		<path d="M33.472,15.983v32.74C15.288,52.363,1.496,68.472,1.496,87.737c0,18.697,12.977,34.417,30.391,38.655v16.603h15.636
			v-15.963C65.66,124.16,79.912,106.383,81.15,87.56h47.873V15.983H33.472z M98.918,31.619L81.248,45.756L63.577,31.619H98.918z
			 M65.438,87.748c0,13.551-10.839,24.141-24.153,24.141c-13.314,0-24.153-10.841-24.153-24.155c0-10.622,6.738-19.656,16.34-22.88
			V87.56h31.974L65.438,87.748z M113.387,71.924H49.108V40.067l32.14,25.711l32.139-25.711V71.924z"/>
	</g>
</g>
<g>
</g>
<g>
</g>
<g>
</g>
<g>
</g>
<g>
</g>
<g>
</g>
<g>
</g>
<g>
</g>
<g>
</g>
<g>
</g>
<g>
</g>
<g>
</g>
<g>
</g>
<g>
</g>
<g>
</g>
</svg>
