<?xml version="1.0" encoding="iso-8859-1"?>
<!-- Generator: Adobe Illustrator 19.0.0, SVG Export Plug-In . SVG Version: 6.00 Build 0)  -->
<svg version="1.1" id="Layer_1" xmlns="http://www.w3.org/2000/svg" xmlns:xlink="http://www.w3.org/1999/xlink" x="0px" y="0px"
	 viewBox="0 0 512 512" style="enable-background:new 0 0 512 512;" xml:space="preserve">
<g>
	<g>
		<path d="M367.165,195.608c4.428,0,8.017-3.589,8.017-8.017V67.875c0-4.427-3.588-8.017-8.017-8.017h-86.046V42.221
			c0-4.427-3.588-8.017-8.017-8.017h-23.214C240.22,13.531,219.293,0,196.142,0s-44.078,13.531-53.746,34.205h-23.214
			c-4.428,0-8.017,3.589-8.017,8.017v17.637H25.119c-4.428,0-8.017,3.589-8.017,8.017v436.109c0,4.427,3.588,8.017,8.017,8.017
			H288.78c2.101,0,4.183-0.863,5.669-2.348l78.385-78.385c1.486-1.486,2.347-3.568,2.347-5.668V221.795
			c0-4.427-3.588-8.017-8.017-8.017c-4.428,0-8.017,3.589-8.017,8.017v195.786H288.78c-4.428,0-8.017,3.589-8.017,8.017v70.368
			H33.136V75.891h78.029v26.188c0,4.427,3.588,8.017,8.017,8.017h153.921c4.428,0,8.017-3.589,8.017-8.017V75.891h78.029v111.699
			C359.148,192.018,362.737,195.608,367.165,195.608z M296.797,433.615h51.015l-51.015,51.015V433.615z M265.086,94.063H127.198
			V50.238h20.568c3.398,0,6.426-2.141,7.558-5.344c6.103-17.262,22.507-28.86,40.818-28.86s34.714,11.599,40.818,28.86
			c1.133,3.203,4.161,5.344,7.558,5.344h20.568V94.063z"/>
	</g>
</g>
<g>
	<g>
		<path d="M298.756,324.944H196.142c-4.428,0-8.017,3.589-8.017,8.017s3.588,8.017,8.017,8.017h102.614
			c4.428,0,8.017-3.589,8.017-8.017S303.184,324.944,298.756,324.944z"/>
	</g>
</g>
<g>
	<g>
		<path d="M298.756,359.148H196.142c-4.428,0-8.017,3.589-8.017,8.017c0,4.427,3.588,8.017,8.017,8.017h102.614
			c4.428,0,8.017-3.589,8.017-8.017C306.772,362.738,303.184,359.148,298.756,359.148z"/>
	</g>
</g>
<g>
	<g>
		<path d="M298.756,393.353H196.142c-4.428,0-8.017,3.589-8.017,8.017c0,4.427,3.588,8.017,8.017,8.017h102.614
			c4.428,0,8.017-3.589,8.017-8.017C306.772,396.942,303.184,393.353,298.756,393.353z"/>
	</g>
</g>
<g>
	<g>
		<path d="M144.835,359.148H110.63c-5.01,0-9.086-4.076-9.086-9.086V332.96c0-5.01,4.076-9.086,9.086-9.086h51.307
			c4.428,0,8.017-3.589,8.017-8.017s-3.588-8.017-8.017-8.017h-26.188v-9.086c0-4.427-3.588-8.017-8.017-8.017
			s-8.017,3.589-8.017,8.017v9.086h-9.086c-13.851,0-25.119,11.268-25.119,25.119v17.102c0,13.851,11.268,25.119,25.119,25.119
			h34.205c5.01,0,9.086,4.076,9.086,9.086v17.102c0,5.01-4.076,9.086-9.086,9.086H93.528c-4.428,0-8.017,3.589-8.017,8.017
			c0,4.427,3.588,8.017,8.017,8.017h26.188v9.086c0,4.427,3.588,8.017,8.017,8.017s8.017-3.589,8.017-8.017v-9.086h9.086
			c13.851,0,25.119-11.268,25.119-25.119v-17.102C169.954,370.417,158.686,359.148,144.835,359.148z"/>
	</g>
</g>
<g>
	<g>
		<path d="M290.205,128.267H102.079c-4.428,0-8.017,3.589-8.017,8.017v128.267c0,4.427,3.588,8.017,8.017,8.017h188.125
			c4.428,0,8.017-3.589,8.017-8.017V136.284C298.221,131.857,294.633,128.267,290.205,128.267z M135.749,144.301h9.62v35.273h-9.62
			V144.301z M171.023,256.534h-60.927V144.301h9.62v43.29c0,4.427,3.588,8.017,8.017,8.017h25.653c4.428,0,8.017-3.589,8.017-8.017
			v-43.29h9.62V256.534z M282.188,256.534h-95.132V144.301h95.132V256.534z"/>
	</g>
</g>
<g>
	<g>
		<path d="M264.551,162.472h-51.307c-4.428,0-8.017,3.589-8.017,8.017s3.588,8.017,8.017,8.017h51.307
			c4.428,0,8.017-3.589,8.017-8.017S268.98,162.472,264.551,162.472z"/>
	</g>
</g>
<g>
	<g>
		<path d="M220.641,218.728c-1.235-3.093-4.478-5.107-7.791-4.939c-3.494,0.177-6.523,2.67-7.379,6.057
			c-1.786,7.079,6.542,12.757,12.479,8.436C220.906,226.131,222.064,222.109,220.641,218.728z"/>
	</g>
</g>
<g>
	<g>
		<path d="M246.294,218.728c-1.211-3.035-4.344-5.027-7.594-4.944c-3.269,0.083-6.256,2.222-7.349,5.31
			c-1.119,3.165-0.128,6.763,2.463,8.895c2.688,2.214,6.634,2.406,9.529,0.476C246.478,226.376,247.759,222.208,246.294,218.728z"/>
	</g>
</g>
<g>
	<g>
		<path d="M271.959,218.728c-2.689-6.391-12.158-6.499-14.815,0c-1.323,3.237-0.373,7.041,2.325,9.262
			c2.579,2.124,6.318,2.396,9.184,0.689C272.053,226.656,273.415,222.379,271.959,218.728z"/>
	</g>
</g>
<g>
	<g>
		<path d="M132.179,215.125c-3.027-2.042-7.218-1.689-9.887,0.786c-2.303,2.136-3.161,5.516-2.137,8.486
			c1.103,3.202,4.186,5.409,7.577,5.416c3.389,0.006,6.477-2.222,7.577-5.416C136.491,220.968,135.15,217.16,132.179,215.125z"/>
	</g>
</g>
<g>
	<g>
		<path d="M160.794,218.728c-2.7-6.416-12.123-6.49-14.815,0c-1.354,3.265-0.339,7.179,2.442,9.362
			c2.587,2.031,6.24,2.268,9.064,0.589C160.889,226.658,162.252,222.38,160.794,218.728z"/>
	</g>
</g>
<g>
	<g>
		<path d="M196.142,25.653c-13.851,0-25.119,11.268-25.119,25.119c0,13.851,11.268,25.119,25.119,25.119
			s25.119-11.268,25.119-25.119C221.261,36.922,209.993,25.653,196.142,25.653z M196.142,59.858c-5.01,0-9.086-4.076-9.086-9.086
			c0-5.01,4.076-9.086,9.086-9.086s9.086,4.076,9.086,9.086C205.228,55.782,201.152,59.858,196.142,59.858z"/>
	</g>
</g>
<g>
	<g>
		<path d="M486.881,342.046c-4.428,0-8.017,3.589-8.017,8.017v102.614c0,5.01-4.076,9.086-9.086,9.086h-8.551
			c-0.181,0-0.357,0.015-0.534,0.027V161.937c0-0.949-0.175-1.926-0.511-2.814L435.04,92.074v-24.2c0-4.427-3.588-8.017-8.017-8.017
			c-4.428,0-8.017,3.589-8.017,8.017v24.2l-25.143,67.049c-0.333,0.889-0.511,1.865-0.511,2.814v324.944
			c0,13.851,11.268,25.119,25.119,25.119h17.102c13.851,0,25.119-11.268,25.119-25.119v-9.112c0.177,0.012,0.354,0.027,0.534,0.027
			h8.551c13.851,0,25.119-11.268,25.119-25.119V350.063C494.898,345.635,491.309,342.046,486.881,342.046z M427.023,116.36
			l14.086,37.561h-28.171L427.023,116.36z M444.66,486.881c0,5.01-4.076,9.086-9.086,9.086h-17.102c-5.01,0-9.086-4.076-9.086-9.086
			V375.182h35.273V486.881z M444.66,359.148h-35.273V169.954h35.273V359.148z"/>
	</g>
</g>
<g>
	<g>
		<path d="M431.855,198.302c-2.582-1.957-6.173-2.125-8.95-0.476c-3.395,2.017-4.746,6.292-3.291,9.934
			c1.228,2.903,4.082,4.875,7.242,4.946c3.409,0.076,6.561-2.108,7.707-5.312C435.73,204.133,434.614,200.394,431.855,198.302z"/>
	</g>
</g>
<g>
	<g>
		<path d="M431.855,223.956c-5.892-4.469-14.436,1.173-12.601,8.358c0.897,3.509,4.142,6.05,7.769,6.05
			c3.391,0,6.476-2.218,7.577-5.416C435.715,229.712,434.579,226.021,431.855,223.956z"/>
	</g>
</g>
<g>
	<g>
		<path d="M431.855,249.614c-2.6-1.946-6.157-2.138-8.95-0.479c-3.395,2.015-4.746,6.289-3.291,9.932
			c1.228,2.903,4.082,4.875,7.242,4.946c3.411,0.076,6.558-2.109,7.707-5.311C435.728,255.456,434.623,251.686,431.855,249.614z"/>
	</g>
</g>
<g>
	<g>
		<path d="M427.023,273.637c-4.428,0-8.017,3.589-8.017,8.017v42.756c0,4.427,3.588,8.017,8.017,8.017
			c4.428,0,8.017-3.589,8.017-8.017v-42.756C435.04,277.226,431.451,273.637,427.023,273.637z"/>
	</g>
</g>
<g>
</g>
<g>
</g>
<g>
</g>
<g>
</g>
<g>
</g>
<g>
</g>
<g>
</g>
<g>
</g>
<g>
</g>
<g>
</g>
<g>
</g>
<g>
</g>
<g>
</g>
<g>
</g>
<g>
</g>
</svg>
