<?xml version="1.0" encoding="iso-8859-1"?>
<!-- Generator: Adobe Illustrator 19.0.0, SVG Export Plug-In . SVG Version: 6.00 Build 0)  -->
<svg version="1.1" id="Layer_1" xmlns="http://www.w3.org/2000/svg" xmlns:xlink="http://www.w3.org/1999/xlink" x="0px" y="0px"
	 viewBox="0 0 512 512" style="enable-background:new 0 0 512 512;" xml:space="preserve">
<g>
	<g>
		<g>
			<path d="M511.882,115.688c-0.003-0.092-0.008-0.181-0.013-0.271c-0.024-0.345-0.061-0.687-0.128-1.023
				c0-0.003,0-0.008-0.001-0.011c-0.068-0.341-0.165-0.675-0.277-1.005c-0.028-0.084-0.059-0.167-0.091-0.251
				c-0.115-0.31-0.246-0.614-0.4-0.908c-0.009-0.018-0.016-0.037-0.025-0.055c-0.164-0.307-0.354-0.601-0.558-0.885
				c-0.053-0.073-0.106-0.145-0.159-0.217c-0.216-0.284-0.446-0.559-0.7-0.814l-62.352-62.353L401.649,2.366
				c-0.254-0.254-0.53-0.483-0.813-0.7c-0.072-0.056-0.145-0.11-0.22-0.163c-0.284-0.203-0.574-0.391-0.88-0.554
				c-0.025-0.015-0.053-0.024-0.079-0.038c-0.283-0.148-0.576-0.274-0.876-0.385c-0.093-0.034-0.183-0.068-0.277-0.099
				c-0.313-0.107-0.632-0.198-0.959-0.265c-0.033-0.006-0.068-0.012-0.103-0.018c-0.31-0.059-0.625-0.095-0.943-0.116
				c-0.106-0.009-0.209-0.013-0.315-0.016C396.103,0.01,396.021,0,395.937,0H120.399c-4.463,0-8.079,3.616-8.079,8.079v188.455
				c-38.589,1.571-69.503,33.44-69.503,72.408v21.399c-7.151,5.204-11.812,13.631-11.812,23.131
				c0,15.767,12.83,28.595,28.599,28.595c0.072,0,0.142-0.01,0.214-0.011c4.09,14.453,13.912,26.523,26.861,33.563v10.278
				l-48.213,18.882c-13.39,4.596-38.363,22.694-38.363,58.92v40.213c0,4.462,3.616,8.089,8.079,8.089h35.74
				c4.463,0,8.079-3.616,8.079-8.079s-3.616-8.079-8.079-8.079H16.263v-32.144c0-33.642,26.472-43.293,27.553-43.672
				c0.126-0.042,0.25-0.087,0.374-0.136l44.28-17.343c0.203,0.25,0.416,0.493,0.651,0.724l23.224,22.621
				c1.509,1.47,3.532,2.292,5.637,2.292c0.042,0,0.085,0,0.128-0.001c2.15-0.033,4.197-0.923,5.689-2.472l22.712-23.571l44.2,17.725
				c0.143,0.058,0.289,0.111,0.434,0.159c0.276,0.093,27.555,9.653,27.555,43.672v32.144H152.17H84.585H72.283
				c-4.462,0-8.079,3.616-8.079,8.079s3.616,8.079,8.079,8.079h12.302h67.586h74.607c0.776,0,1.523-0.117,2.233-0.326h274.804
				c4.462,0,8.079-3.617,8.079-8.079V115.96C511.896,115.869,511.885,115.778,511.882,115.688z M404.016,27.584l25.271,25.272
				c0.004,0.004,0.009,0.008,0.013,0.012l6.453,6.452l27.795,27.795c0.003,0.003,0.006,0.008,0.01,0.011l20.756,20.756h-80.297
				V27.584z M57.724,325.751c-5.968-0.91-10.561-6.061-10.561-12.279c0-3.61,1.554-6.854,4.019-9.129
				c2.46-0.086,4.638-1.268,6.061-3.079c0.159-0.029,0.321-0.049,0.48-0.072V325.751z M65.835,278.768c-0.001,0-0.002,0-0.003,0
				c-0.011,0-0.021,0-0.03,0c-0.278,0-0.554,0.015-0.824,0.042c-0.087,0.009-0.172,0.027-0.259,0.039
				c-0.182,0.024-0.364,0.046-0.542,0.083c-0.122,0.025-0.239,0.061-0.359,0.092c-0.139,0.034-0.279,0.065-0.414,0.107
				c-0.142,0.044-0.278,0.1-0.417,0.152c-0.108,0.04-0.218,0.073-0.324,0.118c-0.163,0.069-0.32,0.151-0.476,0.229
				c-0.075,0.037-0.154,0.069-0.227,0.109c-0.165,0.091-0.323,0.192-0.48,0.292c-0.061,0.039-0.124,0.071-0.184,0.111
				c-0.154,0.104-0.299,0.218-0.445,0.332c-0.058,0.045-0.12,0.085-0.177,0.133c-0.139,0.113-0.269,0.239-0.401,0.362
				c-0.056,0.054-0.116,0.102-0.172,0.157c-0.124,0.124-0.24,0.258-0.355,0.39c-0.055,0.061-0.113,0.118-0.166,0.182
				c-0.109,0.13-0.206,0.27-0.307,0.408c-0.052,0.071-0.109,0.139-0.158,0.211c-0.05,0.073-0.093,0.153-0.14,0.228v-13.6
				c0-31.061,25.268-56.328,56.326-56.328h5.367c31.057,0,56.324,25.267,56.324,56.325v13.234c-0.018-0.026-0.038-0.051-0.057-0.077
				c-0.07-0.096-0.14-0.193-0.213-0.286c-0.082-0.101-0.167-0.199-0.253-0.296c-0.088-0.101-0.176-0.2-0.268-0.295
				c-0.083-0.085-0.169-0.166-0.255-0.247c-0.104-0.099-0.208-0.196-0.318-0.288c-0.087-0.074-0.178-0.143-0.267-0.213
				c-0.114-0.089-0.229-0.178-0.35-0.262c-0.098-0.068-0.2-0.13-0.301-0.195c-0.116-0.073-0.234-0.148-0.354-0.215
				c-0.119-0.066-0.242-0.126-0.365-0.187c-0.109-0.055-0.216-0.11-0.33-0.158c-0.146-0.065-0.296-0.121-0.448-0.177
				c-0.096-0.036-0.191-0.073-0.289-0.106c-0.168-0.056-0.339-0.1-0.513-0.144c-0.071-0.019-0.14-0.043-0.212-0.06
				c-17.605-4.004-23.117-26.764-23.165-26.967c-0.7-3.096-3.15-5.494-6.261-6.13c-3.11-0.639-6.305,0.608-8.165,3.18
				C113.323,278.474,66.483,278.768,65.835,278.768z M133.374,391.535c0,0.011,0,0.022,0,0.031v0.921l-15.575,16.163l-14.962-14.575
				v-12.735c3.294,0.614,6.683,0.951,10.152,0.951h10.236c3.469,0,6.858-0.337,10.151-0.951V391.535z M123.224,366.134h-10.236
				c-21.564,0-39.106-17.542-39.106-39.104v-32.51c14.11-1.212,43.514-6.065,64.473-25.477c4.285,8.465,11.738,18.672,23.972,23.679
				v34.308C162.328,348.593,144.787,366.134,123.224,366.134z M495.738,495.516h-260.88v-31.818
				c0-36.198-24.934-54.296-38.332-58.909l-46.993-18.846v-10.325c12.946-7.038,22.767-19.105,26.858-33.555
				c15.702-0.079,28.453-12.873,28.453-28.591c0-9.448-4.608-17.837-11.693-23.048v-21.482c0-37.327-28.366-68.147-64.672-72.057
				V16.158h259.38v99.802c0,4.463,3.616,8.079,8.079,8.079h99.801V495.516z M178.484,325.696v-24.45h0.001
				c0.158,0.029,0.317,0.06,0.472,0.095c1.348,1.56,3.278,2.596,5.455,2.772c2.612,2.283,4.272,5.627,4.272,9.36
				C188.684,319.563,184.276,324.636,178.484,325.696z"/>
			<path d="M217.69,154.822h127.493c4.463,0,8.079-3.616,8.079-8.079s-3.616-8.079-8.079-8.079H217.69
				c-4.463,0-8.079,3.616-8.079,8.079C209.611,151.204,213.227,154.822,217.69,154.822z"/>
			<path d="M209.611,202.114c0,4.463,3.616,8.079,8.079,8.079h192.599c4.463,0,8.079-3.616,8.079-8.079s-3.617-8.079-8.079-8.079
				H217.69C213.227,194.035,209.611,197.651,209.611,202.114z"/>
			<path d="M410.289,249.407H217.69c-4.463,0-8.079,3.616-8.079,8.079s3.616,8.079,8.079,8.079h192.599
				c4.463,0,8.079-3.616,8.079-8.079C418.369,253.024,414.751,249.407,410.289,249.407z"/>
			<path d="M410.289,304.78H217.69c-4.463,0-8.079,3.616-8.079,8.079s3.616,8.079,8.079,8.079h192.599
				c4.463,0,8.079-3.616,8.079-8.079C418.369,308.397,414.751,304.78,410.289,304.78z"/>
			<path d="M410.289,360.152H217.69c-4.463,0-8.079,3.616-8.079,8.079c0,4.463,3.616,8.079,8.079,8.079h192.599
				c4.463,0,8.079-3.616,8.079-8.079C418.369,363.769,414.751,360.152,410.289,360.152z"/>
		</g>
	</g>
</g>
<g>
</g>
<g>
</g>
<g>
</g>
<g>
</g>
<g>
</g>
<g>
</g>
<g>
</g>
<g>
</g>
<g>
</g>
<g>
</g>
<g>
</g>
<g>
</g>
<g>
</g>
<g>
</g>
<g>
</g>
</svg>
